<?xml version="1.0" standalone="no"?><!DOCTYPE svg PUBLIC "-//W3C//DTD SVG 1.1//EN" "http://www.w3.org/Graphics/SVG/1.1/DTD/svg11.dtd"><svg t="1499393740268" class="icon" style="" viewBox="0 0 1024 1024" version="1.1" xmlns="http://www.w3.org/2000/svg" p-id="14369" xmlns:xlink="http://www.w3.org/1999/xlink" width="12" height="12"><defs><style type="text/css"></style></defs><path d="M438.079326 682.346442 438.079326 600.426442 477.506021 600.426442 477.506021 544.746442 438.079326 544.746442 438.079326 350.186442 345.021979 350.186442 219.575242 552.070737 219.575242 600.426442 367.039326 600.426442 367.039326 682.346442 438.079326 682.346442ZM291.771284 544.746442 292.283284 543.698189 336.317979 469.281684C346.989137 448.406905 357.393516 427.269389 367.533811 405.866442L369.013221 405.866442C367.862568 427.792168 367.205053 448.931032 367.039326 469.281684L367.039326 544.746442 291.771284 544.746442Z" p-id="14370" fill="#ffffff"></path><path d="M806.276042 483.306442 678.662737 483.306442 678.662737 544.106442 731.008 544.106442 731.008 621.745853C724.125642 624.753179 711.709642 626.392926 693.76 626.666442 661.770779 626.363284 636.040084 615.898274 616.569263 595.268716 597.098442 574.640505 587.096926 545.664 586.562021 508.340547 587.264 471.820126 598.063158 444.658526 618.960842 426.859789 639.857179 409.059705 666.636126 400.195368 699.296337 400.266779 717.755284 400.338189 733.276968 401.670737 745.861389 404.261726 758.444463 406.852716 769.366232 410.272337 778.626695 414.520589L795.010695 350.186442C786.402358 346.890779 773.923032 343.647663 757.572716 340.453053 741.2224 337.259789 721.964463 335.544589 699.800253 335.306105 643.065263 335.738611 596.806063 351.361347 561.021305 382.177011 525.237895 412.992674 506.657684 456.410274 505.282021 512.428463 505.356126 538.671158 509.524884 563.102989 517.790989 585.722611 526.055747 608.343579 537.971874 627.429053 553.539368 642.980379 584.403537 672.390737 630.472758 687.219874 691.747032 687.466442 714.656337 687.178105 736.347621 685.037137 756.822232 681.040842 777.296842 677.044547 793.780547 672.925642 806.276042 668.682779L806.276042 483.306442Z" p-id="14371" fill="#ffffff"></path></svg>