<?xml version="1.0" standalone="no"?><!DOCTYPE svg PUBLIC "-//W3C//DTD SVG 1.1//EN" "http://www.w3.org/Graphics/SVG/1.1/DTD/svg11.dtd"><svg t="1499393237223" class="icon" style="" viewBox="0 0 1024 1024" version="1.1" xmlns="http://www.w3.org/2000/svg" p-id="5496" xmlns:xlink="http://www.w3.org/1999/xlink" width="16" height="16"><defs><style type="text/css"></style></defs><path d="M165.236364 840.145455 165.236364 840.145455c-25.6 0-46.545455-20.945455-46.545455-46.545455l0-69.818182c0-25.6 20.945455-46.545455 46.545455-46.545455l0 0c25.6 0 46.545455 20.945455 46.545455 46.545455l0 69.818182C211.781818 819.2 190.836364 840.145455 165.236364 840.145455z" p-id="5497" fill="#ffffff"></path><path d="M397.963636 840.145455 397.963636 840.145455c-25.6 0-46.545455-20.945455-46.545455-46.545455l0-186.181818c0-25.6 20.945455-46.545455 46.545455-46.545455l0 0c25.6 0 46.545455 20.945455 46.545455 46.545455l0 186.181818C444.509091 819.2 423.563636 840.145455 397.963636 840.145455z" p-id="5498" fill="#ffffff"></path><path d="M630.690909 840.145455 630.690909 840.145455c-25.6 0-46.545455-20.945455-46.545455-46.545455l0-372.363636c0-25.6 20.945455-46.545455 46.545455-46.545455l0 0c25.6 0 46.545455 20.945455 46.545455 46.545455l0 372.363636C677.236364 819.2 656.290909 840.145455 630.690909 840.145455z" p-id="5499" fill="#ffffff"></path><path d="M863.418182 840.145455 863.418182 840.145455c-25.6 0-46.545455-20.945455-46.545455-46.545455l0-605.090909c0-25.6 20.945455-46.545455 46.545455-46.545455l0 0c25.6 0 46.545455 20.945455 46.545455 46.545455l0 605.090909C909.963636 819.2 889.018182 840.145455 863.418182 840.145455z" p-id="5500" fill="#ffffff"></path></svg>