<?xml version="1.0" standalone="no"?><!DOCTYPE svg PUBLIC "-//W3C//DTD SVG 1.1//EN" "http://www.w3.org/Graphics/SVG/1.1/DTD/svg11.dtd"><svg t="1499394399391" class="icon" style="" viewBox="0 0 1024 1024" version="1.1" xmlns="http://www.w3.org/2000/svg" p-id="15216" xmlns:xlink="http://www.w3.org/1999/xlink" width="14" height="14"><defs><style type="text/css"></style></defs><path d="M940.94 56.667h-868.513c-41.796 0-75.679 33.883-75.679 75.679v665.977c0 41.796 33.883 75.679 75.679 75.679h868.512c41.797 0 75.679-33.883 75.679-75.679v-665.977c0.001-41.797-33.882-75.679-75.678-75.679zM918.039 182.663l-389.611 389.611c-6.547 6.547-15.191 9.706-23.77 9.497-8.579 0.209-17.223-2.95-23.77-9.497l-389.612-389.611c-12.687-12.687-12.687-33.26 0-45.947s33.26-12.687 45.947 0l367.434 367.434 367.433-367.434c12.687-12.687 33.26-12.687 45.947 0s12.687 33.26 0 45.947z" p-id="15217" fill="#ffffff"></path></svg>