<?xml version="1.0" standalone="no"?><!DOCTYPE svg PUBLIC "-//W3C//DTD SVG 1.1//EN" "http://www.w3.org/Graphics/SVG/1.1/DTD/svg11.dtd"><svg t="1499392334755" class="icon" style="" viewBox="0 0 1024 1024" version="1.1" xmlns="http://www.w3.org/2000/svg" p-id="2579" xmlns:xlink="http://www.w3.org/1999/xlink" width="16" height="16"><defs><style type="text/css"></style></defs><path d="M955.225 361.872c-6.893 7.079-18.146 7.333-25.414 0.64-114.717-105.607-263.002-163.554-419.554-163.554-155.047 0-302.275 56.985-416.577 160.846-7.313 6.645-18.565 6.321-25.413-0.802l-0.001-0.001c-7.084-7.368-6.741-19.154 0.822-26.03 121.033-110.035 276.959-170.41 441.169-170.41 87.057 0 171.629 16.778 251.369 49.871 71.29 29.583 136.118 71.058 192.953 123.411 7.515 6.922 7.776 18.709 0.648 26.028l-0.002 0.001zM507.322 803.909z" p-id="2580" fill="#ffffff"></path><path d="M821.637 495.088c-6.647 7.148-17.755 7.786-25.158 1.425-79.593-68.382-180.443-105.843-285.915-105.843-104.345 0-204.372 36.764-283.598 103.876-7.449 6.311-18.552 5.601-25.152-1.593l-0.001-0.001c-6.99-7.62-6.23-19.523 1.662-26.208 85.793-72.666 194.105-112.472 307.088-112.472 114.199 0 223.399 40.557 309.588 114.594 7.846 6.739 8.53 18.647 1.486 26.222zM508.245 803.909zM686.069 631.594c-6.377 7.129-17.179 8.095-24.731 2.224-42.87-33.334-95.624-51.518-150.314-51.518-53.831 0-105.923 17.677-148.452 50.085-7.612 5.801-18.406 4.743-24.72-2.45-6.951-7.919-5.755-20.085 2.624-26.472 48.858-37.245 108.705-57.56 170.549-57.56 62.822 0 123.417 20.892 172.662 59.186 8.322 6.472 9.413 18.648 2.382 26.505zM508.245 803.909zM513.132 802.841z m-61.417 0c0 33.92 27.497 61.417 61.417 61.417s61.418-27.497 61.418-61.417a61.415 61.415 0 0 0-92.126-53.188 61.415 61.415 0 0 0-30.709 53.188" p-id="2581" fill="#ffffff"></path></svg>