<?xml version="1.0" standalone="no"?><!DOCTYPE svg PUBLIC "-//W3C//DTD SVG 1.1//EN" "http://www.w3.org/Graphics/SVG/1.1/DTD/svg11.dtd"><svg t="1499394655494" class="icon" style="" viewBox="0 0 1024 1024" version="1.1" xmlns="http://www.w3.org/2000/svg" p-id="16081" xmlns:xlink="http://www.w3.org/1999/xlink" width="16" height="16"><defs><style type="text/css"></style></defs><path d="M512.026121 736.003501C454.873119 736.003501 408.534259 786.06672 408.534259 848.001747 408.534259 909.824781 454.873119 960 512.026121 960 569.179123 960 615.465741 909.824781 615.465741 848.001747 615.465741 786.12272 569.179123 736.003501 512.026121 736.003501L512.026121 736.003501ZM292.608744 610.453462 365.74787 689.636224C446.514362 602.165591 577.537881 602.165591 658.356614 689.636224L731.443501 610.453462C610.293761 479.247512 413.758482 479.247512 292.608744 610.453462L292.608744 610.453462ZM146.330493 451.975938 219.469619 531.158701C381.002602 356.273433 642.945158 356.273433 804.530381 531.158701L877.721747 451.975938C675.805523 233.355354 348.246722 233.355354 146.330493 451.975938L146.330493 451.975938ZM0 293.610412 73.139126 372.793175C315.490842 110.381276 708.456915 110.381276 950.860877 372.793175L1024 293.610412C741.265037-12.536804 282.787204-12.536804 0 293.610412L0 293.610412Z" p-id="16082" fill="#ffffff"></path></svg>